<?xml version="1.0" encoding="UTF-8" standalone="no"?>
<!DOCTYPE svg PUBLIC "-//W3C//DTD SVG 1.1//EN"
 "http://www.w3.org/Graphics/SVG/1.1/DTD/svg11.dtd">
<!-- Generated by graphviz version 2.38.0 (20140413.2041)
 -->
<!-- Title: git Pages: 1 -->
<svg width="395pt" height="403pt"
 viewBox="0.00 0.00 395.06 403.22" xmlns="http://www.w3.org/2000/svg" xmlns:xlink="http://www.w3.org/1999/xlink">
<g id="graph0" class="graph" transform="scale(1 1) rotate(0) translate(4 399.22)">
<title>git</title>
<polygon fill="white" stroke="none" points="-4,4 -4,-399.22 391.062,-399.22 391.062,4 -4,4"/>
<!-- e69de29bb2d1d6434b8b29ae775ad8c2e48c5391 -->
<g id="node1" class="node"><title>e69de29bb2d1d6434b8b29ae775ad8c2e48c5391</title>
<ellipse fill="none" stroke="#777777" cx="259.694" cy="-26.8701" rx="63.7795" ry="26.7407"/>
<text text-anchor="middle" x="259.694" y="-30.6701" font-family="Times,serif" font-size="14.00">blob e69de29</text>
<text text-anchor="middle" x="259.694" y="-15.6701" font-family="Times,serif" font-size="14.00">0 bytes</text>
</g>
<!-- 691f546e87dd37c52b896643e21eda8f64e9bc99 -->
<g id="node2" class="node"><title>691f546e87dd37c52b896643e21eda8f64e9bc99</title>
<ellipse fill="none" stroke="#0077ff" cx="310.694" cy="-295.35" rx="76.2353" ry="26.7407"/>
<text text-anchor="middle" x="310.694" y="-299.15" font-family="Times,serif" font-size="14.00">commit 691f546</text>
<text text-anchor="middle" x="310.694" y="-284.15" font-family="Times,serif" font-size="14.00">b</text>
</g>
<!-- 1cb417d030fc8080b6db70673861f7f6b784d885 -->
<g id="node3" class="node"><title>1cb417d030fc8080b6db70673861f7f6b784d885</title>
<ellipse fill="none" stroke="#00ff77" cx="311.694" cy="-122.74" rx="56.59" ry="18"/>
<text text-anchor="middle" x="311.694" y="-119.04" font-family="Times,serif" font-size="14.00">tree 1cb417d</text>
</g>
<!-- 691f546e87dd37c52b896643e21eda8f64e9bc99&#45;&gt;1cb417d030fc8080b6db70673861f7f6b784d885 -->
<g id="edge1" class="edge"><title>691f546e87dd37c52b896643e21eda8f64e9bc99&#45;&gt;1cb417d030fc8080b6db70673861f7f6b784d885</title>
<path fill="none" stroke="#777777" d="M310.846,-268.438C311.032,-236.781 311.344,-183.458 311.534,-151.139"/>
<polygon fill="#777777" stroke="#777777" points="315.034,-151.066 311.593,-141.045 308.034,-151.025 315.034,-151.066"/>
</g>
<!-- fbc572a160600c3675b229618fd18f8c1ee550fb -->
<g id="node4" class="node"><title>fbc572a160600c3675b229618fd18f8c1ee550fb</title>
<ellipse fill="none" stroke="#0077ff" cx="180.694" cy="-204.61" rx="75.8212" ry="26.7407"/>
<text text-anchor="middle" x="180.694" y="-208.41" font-family="Times,serif" font-size="14.00">commit fbc572a</text>
<text text-anchor="middle" x="180.694" y="-193.41" font-family="Times,serif" font-size="14.00">a</text>
</g>
<!-- 691f546e87dd37c52b896643e21eda8f64e9bc99&#45;&gt;fbc572a160600c3675b229618fd18f8c1ee550fb -->
<g id="edge2" class="edge"><title>691f546e87dd37c52b896643e21eda8f64e9bc99&#45;&gt;fbc572a160600c3675b229618fd18f8c1ee550fb</title>
<path fill="none" stroke="#777777" d="M276.538,-271.035C260.118,-259.826 240.278,-246.283 222.919,-234.433"/>
<polygon fill="#777777" stroke="#777777" points="224.855,-231.517 214.622,-228.77 220.908,-237.299 224.855,-231.517"/>
</g>
<!-- 1cb417d030fc8080b6db70673861f7f6b784d885&#45;&gt;e69de29bb2d1d6434b8b29ae775ad8c2e48c5391 -->
<g id="edge3" class="edge"><title>1cb417d030fc8080b6db70673861f7f6b784d885&#45;&gt;e69de29bb2d1d6434b8b29ae775ad8c2e48c5391</title>
<path fill="none" stroke="#777777" d="M280.944,-107.415C272.932,-102.106 265.27,-95.2532 260.694,-86.7401 256.993,-79.8535 255.414,-71.8271 255.02,-63.9565"/>
<polygon fill="#777777" stroke="#777777" points="258.521,-63.8378 255.105,-53.8088 251.521,-63.7791 258.521,-63.8378"/>
<text text-anchor="middle" x="275.194" y="-75.5401" font-family="Times,serif" font-size="14.00">file&#45;a</text>
</g>
<!-- 1cb417d030fc8080b6db70673861f7f6b784d885&#45;&gt;e69de29bb2d1d6434b8b29ae775ad8c2e48c5391 -->
<g id="edge4" class="edge"><title>1cb417d030fc8080b6db70673861f7f6b784d885&#45;&gt;e69de29bb2d1d6434b8b29ae775ad8c2e48c5391</title>
<path fill="none" stroke="#777777" d="M305.116,-104.699C301.09,-94.8513 295.59,-82.3513 289.694,-71.7401 287.783,-68.2997 285.675,-64.7878 283.49,-61.3237"/>
<polygon fill="#777777" stroke="#777777" points="286.37,-59.3321 277.967,-52.8795 280.512,-63.164 286.37,-59.3321"/>
<text text-anchor="middle" x="311.694" y="-75.5401" font-family="Times,serif" font-size="14.00">file&#45;b</text>
</g>
<!-- 261867a527357a02c0676aa18d30a4553cd690a4 -->
<g id="node5" class="node"><title>261867a527357a02c0676aa18d30a4553cd690a4</title>
<ellipse fill="none" stroke="#00ff77" cx="180.694" cy="-122.74" rx="56.59" ry="18"/>
<text text-anchor="middle" x="180.694" y="-119.04" font-family="Times,serif" font-size="14.00">tree 261867a</text>
</g>
<!-- fbc572a160600c3675b229618fd18f8c1ee550fb&#45;&gt;261867a527357a02c0676aa18d30a4553cd690a4 -->
<g id="edge6" class="edge"><title>fbc572a160600c3675b229618fd18f8c1ee550fb&#45;&gt;261867a527357a02c0676aa18d30a4553cd690a4</title>
<path fill="none" stroke="#777777" d="M180.694,-177.458C180.694,-169.013 180.694,-159.63 180.694,-151.1"/>
<polygon fill="#777777" stroke="#777777" points="184.194,-150.886 180.694,-140.887 177.194,-150.887 184.194,-150.886"/>
</g>
<!-- 261867a527357a02c0676aa18d30a4553cd690a4&#45;&gt;e69de29bb2d1d6434b8b29ae775ad8c2e48c5391 -->
<g id="edge5" class="edge"><title>261867a527357a02c0676aa18d30a4553cd690a4&#45;&gt;e69de29bb2d1d6434b8b29ae775ad8c2e48c5391</title>
<path fill="none" stroke="#777777" d="M194.686,-105.066C202.85,-95.3419 213.35,-82.8419 222.694,-71.7401 225.818,-68.0288 229.092,-64.1424 232.346,-60.2817"/>
<polygon fill="#777777" stroke="#777777" points="235.173,-62.3589 238.943,-52.4575 229.821,-57.8468 235.173,-62.3589"/>
<text text-anchor="middle" x="237.194" y="-75.5401" font-family="Times,serif" font-size="14.00">file&#45;a</text>
</g>
<!-- heads/branch&#45;a -->
<g id="node6" class="node"><title>heads/branch&#45;a</title>
<ellipse fill="none" stroke="#ff7700" cx="63.6943" cy="-295.35" rx="63.8893" ry="18"/>
<text text-anchor="middle" x="63.6943" y="-291.65" font-family="Times,serif" font-size="14.00">heads/branch&#45;a</text>
</g>
<!-- heads/branch&#45;a&#45;&gt;fbc572a160600c3675b229618fd18f8c1ee550fb -->
<g id="edge7" class="edge"><title>heads/branch&#45;a&#45;&gt;fbc572a160600c3675b229618fd18f8c1ee550fb</title>
<path fill="none" stroke="#777777" d="M84.8822,-278.28C100.6,-266.359 122.485,-249.76 141.371,-235.435"/>
<polygon fill="#777777" stroke="#777777" points="143.677,-238.08 149.529,-229.248 139.446,-232.502 143.677,-238.08"/>
</g>
<!-- heads/master -->
<g id="node7" class="node"><title>heads/master</title>
<ellipse fill="none" stroke="#ff7700" cx="310.694" cy="-377.22" rx="57.3905" ry="18"/>
<text text-anchor="middle" x="310.694" y="-373.52" font-family="Times,serif" font-size="14.00">heads/master</text>
</g>
<!-- heads/master&#45;&gt;691f546e87dd37c52b896643e21eda8f64e9bc99 -->
<g id="edge8" class="edge"><title>heads/master&#45;&gt;691f546e87dd37c52b896643e21eda8f64e9bc99</title>
<path fill="none" stroke="#777777" d="M310.694,-358.89C310.694,-351.156 310.694,-341.736 310.694,-332.578"/>
<polygon fill="#777777" stroke="#777777" points="314.194,-332.454 310.694,-322.454 307.194,-332.454 314.194,-332.454"/>
</g>
<!-- HEAD -->
<g id="node8" class="node"><title>HEAD</title>
<ellipse fill="none" stroke="#ff7700" cx="180.694" cy="-295.35" rx="35.194" ry="18"/>
<text text-anchor="middle" x="180.694" y="-291.65" font-family="Times,serif" font-size="14.00">HEAD</text>
</g>
<!-- HEAD&#45;&gt;fbc572a160600c3675b229618fd18f8c1ee550fb -->
<g id="edge9" class="edge"><title>HEAD&#45;&gt;fbc572a160600c3675b229618fd18f8c1ee550fb</title>
<path fill="none" stroke="#777777" d="M180.694,-277.24C180.694,-267.167 180.694,-254.034 180.694,-241.768"/>
<polygon fill="#777777" stroke="#777777" points="184.194,-241.755 180.694,-231.755 177.194,-241.755 184.194,-241.755"/>
</g>
</g>
</svg>
