<?xml version="1.0" encoding="UTF-8" standalone="no"?>
<!DOCTYPE svg PUBLIC "-//W3C//DTD SVG 1.1//EN"
 "http://www.w3.org/Graphics/SVG/1.1/DTD/svg11.dtd">
<!-- Generated by graphviz version 2.38.0 (20140413.2041)
 -->
<!-- Title: git Pages: 1 -->
<svg width="306pt" height="476pt"
 viewBox="0.00 0.00 306.06 476.22" xmlns="http://www.w3.org/2000/svg" xmlns:xlink="http://www.w3.org/1999/xlink">
<g id="graph0" class="graph" transform="scale(1 1) rotate(0) translate(4 472.22)">
<title>git</title>
<polygon fill="white" stroke="none" points="-4,4 -4,-472.22 302.062,-472.22 302.062,4 -4,4"/>
<!-- e69de29bb2d1d6434b8b29ae775ad8c2e48c5391 -->
<g id="node1" class="node"><title>e69de29bb2d1d6434b8b29ae775ad8c2e48c5391</title>
<ellipse fill="none" stroke="#777777" cx="169.694" cy="-26.8701" rx="63.7795" ry="26.7407"/>
<text text-anchor="middle" x="169.694" y="-30.6701" font-family="Times,serif" font-size="14.00">blob e69de29</text>
<text text-anchor="middle" x="169.694" y="-15.6701" font-family="Times,serif" font-size="14.00">0 bytes</text>
</g>
<!-- 691f546e87dd37c52b896643e21eda8f64e9bc99 -->
<g id="node2" class="node"><title>691f546e87dd37c52b896643e21eda8f64e9bc99</title>
<ellipse fill="none" stroke="#0077ff" cx="221.694" cy="-295.35" rx="76.2353" ry="26.7407"/>
<text text-anchor="middle" x="221.694" y="-299.15" font-family="Times,serif" font-size="14.00">commit 691f546</text>
<text text-anchor="middle" x="221.694" y="-284.15" font-family="Times,serif" font-size="14.00">b</text>
</g>
<!-- 1cb417d030fc8080b6db70673861f7f6b784d885 -->
<g id="node3" class="node"><title>1cb417d030fc8080b6db70673861f7f6b784d885</title>
<ellipse fill="none" stroke="#00ff77" cx="221.694" cy="-122.74" rx="56.59" ry="18"/>
<text text-anchor="middle" x="221.694" y="-119.04" font-family="Times,serif" font-size="14.00">tree 1cb417d</text>
</g>
<!-- 691f546e87dd37c52b896643e21eda8f64e9bc99&#45;&gt;1cb417d030fc8080b6db70673861f7f6b784d885 -->
<g id="edge1" class="edge"><title>691f546e87dd37c52b896643e21eda8f64e9bc99&#45;&gt;1cb417d030fc8080b6db70673861f7f6b784d885</title>
<path fill="none" stroke="#777777" d="M221.694,-268.438C221.694,-236.781 221.694,-183.458 221.694,-151.139"/>
<polygon fill="#777777" stroke="#777777" points="225.194,-151.045 221.694,-141.045 218.194,-151.045 225.194,-151.045"/>
</g>
<!-- fbc572a160600c3675b229618fd18f8c1ee550fb -->
<g id="node4" class="node"><title>fbc572a160600c3675b229618fd18f8c1ee550fb</title>
<ellipse fill="none" stroke="#0077ff" cx="90.6943" cy="-204.61" rx="75.8212" ry="26.7407"/>
<text text-anchor="middle" x="90.6943" y="-208.41" font-family="Times,serif" font-size="14.00">commit fbc572a</text>
<text text-anchor="middle" x="90.6943" y="-193.41" font-family="Times,serif" font-size="14.00">a</text>
</g>
<!-- 691f546e87dd37c52b896643e21eda8f64e9bc99&#45;&gt;fbc572a160600c3675b229618fd18f8c1ee550fb -->
<g id="edge2" class="edge"><title>691f546e87dd37c52b896643e21eda8f64e9bc99&#45;&gt;fbc572a160600c3675b229618fd18f8c1ee550fb</title>
<path fill="none" stroke="#777777" d="M187.618,-271.267C171.07,-260.057 151.015,-246.472 133.451,-234.574"/>
<polygon fill="#777777" stroke="#777777" points="135.298,-231.597 125.056,-228.887 131.372,-237.393 135.298,-231.597"/>
</g>
<!-- 1cb417d030fc8080b6db70673861f7f6b784d885&#45;&gt;e69de29bb2d1d6434b8b29ae775ad8c2e48c5391 -->
<g id="edge3" class="edge"><title>1cb417d030fc8080b6db70673861f7f6b784d885&#45;&gt;e69de29bb2d1d6434b8b29ae775ad8c2e48c5391</title>
<path fill="none" stroke="#777777" d="M190.944,-107.415C182.932,-102.106 175.27,-95.2532 170.694,-86.7401 166.993,-79.8535 165.414,-71.8271 165.02,-63.9565"/>
<polygon fill="#777777" stroke="#777777" points="168.521,-63.8378 165.105,-53.8088 161.521,-63.7791 168.521,-63.8378"/>
<text text-anchor="middle" x="185.194" y="-75.5401" font-family="Times,serif" font-size="14.00">file&#45;a</text>
</g>
<!-- 1cb417d030fc8080b6db70673861f7f6b784d885&#45;&gt;e69de29bb2d1d6434b8b29ae775ad8c2e48c5391 -->
<g id="edge4" class="edge"><title>1cb417d030fc8080b6db70673861f7f6b784d885&#45;&gt;e69de29bb2d1d6434b8b29ae775ad8c2e48c5391</title>
<path fill="none" stroke="#777777" d="M215.116,-104.699C211.09,-94.8513 205.59,-82.3513 199.694,-71.7401 197.783,-68.2997 195.675,-64.7878 193.49,-61.3237"/>
<polygon fill="#777777" stroke="#777777" points="196.37,-59.3321 187.967,-52.8795 190.512,-63.164 196.37,-59.3321"/>
<text text-anchor="middle" x="221.694" y="-75.5401" font-family="Times,serif" font-size="14.00">file&#45;b</text>
</g>
<!-- 261867a527357a02c0676aa18d30a4553cd690a4 -->
<g id="node5" class="node"><title>261867a527357a02c0676aa18d30a4553cd690a4</title>
<ellipse fill="none" stroke="#00ff77" cx="90.6943" cy="-122.74" rx="56.59" ry="18"/>
<text text-anchor="middle" x="90.6943" y="-119.04" font-family="Times,serif" font-size="14.00">tree 261867a</text>
</g>
<!-- fbc572a160600c3675b229618fd18f8c1ee550fb&#45;&gt;261867a527357a02c0676aa18d30a4553cd690a4 -->
<g id="edge6" class="edge"><title>fbc572a160600c3675b229618fd18f8c1ee550fb&#45;&gt;261867a527357a02c0676aa18d30a4553cd690a4</title>
<path fill="none" stroke="#777777" d="M90.6943,-177.458C90.6943,-169.013 90.6943,-159.63 90.6943,-151.1"/>
<polygon fill="#777777" stroke="#777777" points="94.1944,-150.886 90.6943,-140.887 87.1944,-150.887 94.1944,-150.886"/>
</g>
<!-- 261867a527357a02c0676aa18d30a4553cd690a4&#45;&gt;e69de29bb2d1d6434b8b29ae775ad8c2e48c5391 -->
<g id="edge5" class="edge"><title>261867a527357a02c0676aa18d30a4553cd690a4&#45;&gt;e69de29bb2d1d6434b8b29ae775ad8c2e48c5391</title>
<path fill="none" stroke="#777777" d="M104.818,-104.958C115.153,-92.6774 129.508,-75.6205 142.088,-60.6728"/>
<polygon fill="#777777" stroke="#777777" points="145.096,-62.534 148.857,-52.6292 139.74,-58.0266 145.096,-62.534"/>
<text text-anchor="middle" x="147.194" y="-75.5401" font-family="Times,serif" font-size="14.00">file&#45;a</text>
</g>
<!-- heads/branch&#45;a -->
<g id="node6" class="node"><title>heads/branch&#45;a</title>
<ellipse fill="none" stroke="#ff7700" cx="63.6943" cy="-295.35" rx="63.8893" ry="18"/>
<text text-anchor="middle" x="63.6943" y="-291.65" font-family="Times,serif" font-size="14.00">heads/branch&#45;a</text>
</g>
<!-- heads/branch&#45;a&#45;&gt;fbc572a160600c3675b229618fd18f8c1ee550fb -->
<g id="edge7" class="edge"><title>heads/branch&#45;a&#45;&gt;fbc572a160600c3675b229618fd18f8c1ee550fb</title>
<path fill="none" stroke="#777777" d="M68.9002,-277.24C72.0199,-266.987 76.1042,-253.563 79.893,-241.111"/>
<polygon fill="#777777" stroke="#777777" points="83.2816,-241.997 82.844,-231.412 76.5847,-239.96 83.2816,-241.997"/>
</g>
<!-- heads/master -->
<g id="node7" class="node"><title>heads/master</title>
<ellipse fill="none" stroke="#ff7700" cx="221.694" cy="-377.22" rx="57.3905" ry="18"/>
<text text-anchor="middle" x="221.694" y="-373.52" font-family="Times,serif" font-size="14.00">heads/master</text>
</g>
<!-- heads/master&#45;&gt;691f546e87dd37c52b896643e21eda8f64e9bc99 -->
<g id="edge8" class="edge"><title>heads/master&#45;&gt;691f546e87dd37c52b896643e21eda8f64e9bc99</title>
<path fill="none" stroke="#777777" d="M221.694,-358.89C221.694,-351.156 221.694,-341.736 221.694,-332.578"/>
<polygon fill="#777777" stroke="#777777" points="225.194,-332.454 221.694,-322.454 218.194,-332.454 225.194,-332.454"/>
</g>
<!-- HEAD -->
<g id="node8" class="node"><title>HEAD</title>
<ellipse fill="none" stroke="#ff7700" cx="221.694" cy="-450.22" rx="35.194" ry="18"/>
<text text-anchor="middle" x="221.694" y="-446.52" font-family="Times,serif" font-size="14.00">HEAD</text>
</g>
<!-- HEAD&#45;&gt;heads/master -->
<g id="edge9" class="edge"><title>HEAD&#45;&gt;heads/master</title>
<path fill="none" stroke="#777777" d="M221.694,-432.033C221.694,-424.01 221.694,-414.268 221.694,-405.289"/>
<polygon fill="#777777" stroke="#777777" points="225.194,-405.249 221.694,-395.249 218.194,-405.249 225.194,-405.249"/>
</g>
</g>
</svg>
